<mxfile host="app.diagrams.net" modified="2023-05-17T07:47:34.054Z" agent="Mozilla/5.0 (X11; Linux x86_64; rv:102.0) Gecko/20100101 Firefox/102.0" etag="QGpw9TA-Y5_EtZ8rlj7y" version="21.3.2" type="device">
  <diagram name="PÃ¡gina-1" id="hFMA3mn-xPMUYz3G-Z2J">
    <mxGraphModel dx="576" dy="320" grid="1" gridSize="10" guides="1" tooltips="1" connect="1" arrows="1" fold="1" page="1" pageScale="1" pageWidth="1169" pageHeight="827" math="0" shadow="0">
      <root>
        <mxCell id="0" />
        <mxCell id="1" parent="0" />
        <mxCell id="DkBrtQAzlAgfag9NeIXc-10" value="" style="shape=image;verticalLabelPosition=bottom;labelBackgroundColor=default;verticalAlign=top;aspect=fixed;imageAspect=0;image=data:image/svg+xml,PHN2ZyB4bWxucz0iaHR0cDovL3d3dy53My5vcmcvMjAwMC9zdmciIGhlaWdodD0iNDAwIiB3aWR0aD0iNDAwIiB2ZXJzaW9uPSIxLjEiIGlkPSJTcGhlcmVfZmlsbGVkX2JsdWUiIHZpZXdCb3g9IjAgMCA0MDAgNDAwIj4mI3hhOyAgJiN4YTsgIDx0aXRsZSBpZD0idGl0bGUyIj5TcGhlcmUgZmlsbGVkX2JsdWU8L3RpdGxlPiYjeGE7ICA8ZGVzYyBpZD0iZGVzYzQiPiYjeGE7ICAgICBhYm91dDogaHR0cDovL2NvbW1vbnMud2lraW1lZGlhLm9yZy93aWtpL0ltYWdlOlNwaGVyZV9maWxsZWRfYmx1ZS5zdmcmI3hhOyAgICAgcmlnaHRzOiBHTlUgRnJlZSBEb2N1bWVudGF0aW9uIGxpY2Vuc2UsJiN4YTsgICAgICAgICAgICAgQ3JlYXRpdmUgQ29tbW9ucyBBdHRyaWJ1dGlvbiBTaGFyZUFsaWtlIGxpY2Vuc2UmI3hhOyAgPC9kZXNjPiYjeGE7ICA8ZGVmcyBpZD0iZGVmczE1Ij4mI3hhOyAgICA8cmFkaWFsR3JhZGllbnQgcj0iMC43NSIgY3k9IjAuNjciIGN4PSIwLjMzIiBpZD0id2hpdGVfc3BvdCI+JiN4YTsgICAgICA8c3RvcCBpZD0ic3RvcDYiIHN0b3Atb3BhY2l0eT0iMC43IiBvZmZzZXQ9IjAiIHN0b3AtY29sb3I9IndoaXRlIi8+JiN4YTsgICAgICA8c3RvcCBpZD0ic3RvcDgiIHN0b3Atb3BhY2l0eT0iMCIgb2Zmc2V0PSIwLjciIHN0b3AtY29sb3I9IndoaXRlIi8+JiN4YTsgICAgICA8c3RvcCBpZD0ic3RvcDEwIiBzdG9wLW9wYWNpdHk9IjAiIG9mZnNldD0iMC43IiBzdG9wLWNvbG9yPSJibGFjayIvPiYjeGE7ICAgICAgPHN0b3AgaWQ9InN0b3AxMiIgc3RvcC1vcGFjaXR5PSIwLjMiIG9mZnNldD0iMSIgc3RvcC1jb2xvcj0iYmxhY2siLz4mI3hhOyAgICA8L3JhZGlhbEdyYWRpZW50PiYjeGE7ICA8L2RlZnM+JiN4YTsgIDxnIHRyYW5zZm9ybT0ic2NhbGUoMjAwLCAtMjAwKSB0cmFuc2xhdGUoMSwgLTEpIiBpZD0ic3BoZXJlIj4mI3hhOyAgICA8ZyBpZD0ic3BoZXJlX2ZpbGwiPiYjeGE7ICAgICAgPGNpcmNsZSBzdHlsZT0iZGlzcGxheTppbmxpbmU7ZmlsbDojZjE4ZTAwO2ZpbGwtb3BhY2l0eToxIiBpZD0iY2lyY2xlMTciIGZpbGw9IiM1NTk5YWEiIHN0cm9rZT0ibm9uZSIgcj0iMSIgY3k9IjAiIGN4PSIwIi8+JiN4YTsgICAgPC9nPiYjeGE7ICAgIDxjaXJjbGUgaWQ9ImNpcmNsZTIwIiBzdHlsZT0iZmlsbDp1cmwoI3doaXRlX3Nwb3QpOyBzdHJva2U6bm9uZSIgcj0iMSIgY3k9IjAiIGN4PSIwIi8+JiN4YTsgICAgPGcgc3R5bGU9InN0cm9rZTpub25lOyBmaWxsOiMwMDAwMDA7IGZpbGxfcnVsZTpldmVub2RkIiBpZD0ic3BoZXJlX2Zyb250Ij4mI3hhOyAgICAgIDxnIGlkPSJtZXJpZGlhbnMiPiYjeGE7ICAgICAgICA8cGF0aCBkPSJNIC0wLjAzMDkzMzgsMC45OTk1MjEgQSAwLjk5OTk5LDAuMDM0NjA1MyAtODguNDc3NSAxIDAgMC4wMjIyMDUxLC0wLjk5OTc1MyBBIDEsMSAwIDAgMSAwLjAzMDkzMzgsLTAuOTk5NTIxIEEgMC45OTk5OSwwLjAzNDYwNTMgLTg4LjQ3NzUgMCAxIC0wLjAyMjIwNTEsMC45OTk3NTMgQSAxLDEgMCAwIDEgLTAuMDMwOTMzOCwwLjk5OTUyMSBaIiBpZD0ibWVyaWRpYW4wIi8+JiN4YTsgICAgICAgIDxwYXRoIGQ9Ik0gLTAuMTM4MTM1LDAuOTkwNDEzIEEgMC45OTk5OSwwLjE3MTcxMSAtODIuMzEzOSAxIDAgMC4xMjkzNTYsLTAuOTkxNTk4IEEgMSwxIDAgMCAxIDAuMTM4MTM1LC0wLjk5MDQxMyBBIDAuOTk5OTksMC4xNzE3MTEgLTgyLjMxMzkgMCAxIC0wLjEyOTM1NiwwLjk5MTU5OCBBIDEsMSAwIDAgMSAtMC4xMzgxMzUsMC45OTA0MTMgWiIgaWQ9Im1lcmlkaWFuMSIvPiYjeGE7ICAgICAgICA8cGF0aCBkPSJNIC0wLjI0ODk0MiwwLjk2ODUxOCBBIDAuOTk5OTksMC4zMDM2IC03NS44NDc1IDEgMCAwLjI0MDA2MSwtMC45NzA3NTggQSAxLDEgMCAwIDEgMC4yNDg5NDIsLTAuOTY4NTE4IEEgMC45OTk5OSwwLjMwMzYgLTc1Ljg0NzUgMCAxIC0wLjI0MDA2MSwwLjk3MDc1OCBBIDEsMSAwIDAgMSAtMC4yNDg5NDIsMC45Njg1MTggWiIgaWQ9Im1lcmlkaWFuMiIvPiYjeGE7ICAgICAgICA8cGF0aCBkPSJNIC0wLjM2NjA3NiwwLjkzMDU4NSBBIDAuOTk5OTksMC40MjYyNjQgLTY4LjgwMjUgMSAwIDAuMzU3MDgyLC0wLjkzNDA3MyBBIDEsMSAwIDAgMSAwLjM2NjA3NiwtMC45MzA1ODUgQSAwLjk5OTk5LDAuNDI2MjY0IC02OC44MDI1IDAgMSAtMC4zNTcwODIsMC45MzQwNzMgQSAxLDEgMCAwIDEgLTAuMzY2MDc2LDAuOTMwNTg1IFoiIGlkPSJtZXJpZGlhbjMiLz4mI3hhOyAgICAgICAgPHBhdGggZD0iTSAtMC40OTE2NjUsMC44NzA3ODQgQSAwLjk5OTk5LDAuNTM1OTc3IC02MC44NDYgMSAwIDAuNDgyNjM4LC0wLjg3NTgyIEEgMSwxIDAgMCAxIDAuNDkxNjY1LC0wLjg3MDc4NCBBIDAuOTk5OTksMC41MzU5NzcgLTYwLjg0NiAwIDEgLTAuNDgyNjM4LDAuODc1ODIgQSAxLDEgMCAwIDEgLTAuNDkxNjY1LDAuODcwNzg0IFoiIGlkPSJtZXJpZGlhbjQiLz4mI3hhOyAgICAgICAgPHBhdGggZD0iTSAtMC42MjU5MDQsMC43Nzk5IEEgMC45OTk5OSwwLjYyOTQwNCAtNTEuNTczMiAxIDAgMC42MTcxMDYsLTAuNzg2ODggQSAxLDEgMCAwIDEgMC42MjU5MDQsLTAuNzc5OSBBIDAuOTk5OTksMC42Mjk0MDQgLTUxLjU3MzIgMCAxIC0wLjYxNzEwNiwwLjc4Njg4IEEgMSwxIDAgMCAxIC0wLjYyNTkwNCwwLjc3OTkgWiIgaWQ9Im1lcmlkaWFuNSIvPiYjeGE7ICAgICAgICA8cGF0aCBkPSJNIC0wLjc2Mzk5MSwwLjY0NTIyNyBBIDAuOTk5OTksMC43MDM3MDYgLTQwLjUzNDYgMSAwIDAuNzU2MDA4LC0wLjY1NDU2MiBBIDEsMSAwIDAgMSAwLjc2Mzk5MSwtMC42NDUyMjcgQSAwLjk5OTk5LDAuNzAzNzA2IC00MC41MzQ2IDAgMSAtMC43NTYwMDgsMC42NTQ1NjIgQSAxLDEgMCAwIDEgLTAuNzYzOTkxLDAuNjQ1MjI3IFoiIGlkPSJtZXJpZGlhbjYiLz4mI3hhOyAgICAgICAgPHBhdGggZD0iTSAtMC44OTEwMTYsMC40NTM5NzMgQSAwLjk5OTk5LDAuNzU2NjI3IC0yNy4zODEyIDEgMCAwLjg4NDg3NywtMC40NjU4MjQgQSAxLDEgMCAwIDEgMC44OTEwMTYsLTAuNDUzOTczIEEgMC45OTk5OSwwLjc1NjYyNyAtMjcuMzgxMiAwIDEgLTAuODg0ODc3LDAuNDY1ODI0IEEgMSwxIDAgMCAxIC0wLjg5MTAxNiwwLjQ1Mzk3MyBaIiBpZD0ibWVyaWRpYW43Ii8+JiN4YTsgICAgICAgIDxwYXRoIGQ9Ik0gLTAuOTc4ODc0LDAuMjA0NDY1IEEgMC45OTk5OSwwLjc4NjU1OSAtMTIuMjAzIDEgMCAwLjk3NTg4NywtMC4yMTgyNzcgQSAxLDEgMCAwIDEgMC45Nzg4NzQsLTAuMjA0NDY1IEEgMC45OTk5OSwwLjc4NjU1OSAtMTIuMjAzIDAgMSAtMC45NzU4ODcsMC4yMTgyNzcgQSAxLDEgMCAwIDEgLTAuOTc4ODc0LDAuMjA0NDY1IFoiIGlkPSJtZXJpZGlhbjgiLz4mI3hhOyAgICAgICAgPHBhdGggZD0iTSAtMC45OTY5LC0wLjA3ODY3MyBBIDAuOTk5OTksMC43OTI1OTEgNC4xMDIyOCAxIDAgMC45OTc5MjQsMC4wNjQzOTc3IEEgMSwxIDAgMCAxIDAuOTk2OSwwLjA3ODY3MyBBIDAuOTk5OTksMC43OTI1OTEgNC4xMDIyOCAwIDEgLTAuOTk3OTI0LC0wLjA2NDM5NzcgQSAxLDEgMCAwIDEgLTAuOTk2OSwtMC4wNzg2NzMgWiIgaWQ9Im1lcmlkaWFuOSIvPiYjeGE7ICAgICAgICA8cGF0aCBkPSJNIC0wLjkzNzI0OCwtMC4zNDg2NjIgQSAwLjk5OTk5LDAuNzc0NTQgMjAuMDEwMyAxIDAgMC45NDE5NjksMC4zMzU2OTkgQSAxLDEgMCAwIDEgMC45MzcyNDgsMC4zNDg2NjIgQSAwLjk5OTk5LDAuNzc0NTQgMjAuMDEwMyAwIDEgLTAuOTQxOTY5LC0wLjMzNTY5OSBBIDEsMSAwIDAgMSAtMC45MzcyNDgsLTAuMzQ4NjYyIFoiIGlkPSJtZXJpZGlhbjEwIi8+JiN4YTsgICAgICAgIDxwYXRoIGQ9Ik0gLTAuODIzMTQsLTAuNTY3ODM5IEEgMC45OTk5OSwwLjczMjk1NiAzNC4yMzIyIDEgMCAwLjgzMDM1NiwwLjU1NzIzMyBBIDEsMSAwIDAgMSAwLjgyMzE0LDAuNTY3ODM5IEEgMC45OTk5OSwwLjczMjk1NiAzNC4yMzIyIDAgMSAtMC44MzAzNTYsLTAuNTU3MjMzIEEgMSwxIDAgMCAxIC0wLjgyMzE0LC0wLjU2NzgzOSBaIiBpZD0ibWVyaWRpYW4xMSIvPiYjeGE7ICAgICAgICA8cGF0aCBkPSJNIC0wLjY4NjYwNCwtMC43MjcwMzEgQSAwLjk5OTk5LDAuNjY5MTAxIDQ2LjMwMTcgMSAwIDAuNjk1MDk0LDAuNzE4OTE5IEEgMSwxIDAgMCAxIDAuNjg2NjA0LDAuNzI3MDMxIEEgMC45OTk5OSwwLjY2OTEwMSA0Ni4zMDE3IDAgMSAtMC42OTUwOTQsLTAuNzE4OTE5IEEgMSwxIDAgMCAxIC0wLjY4NjYwNCwtMC43MjcwMzEgWiIgaWQ9Im1lcmlkaWFuMTIiLz4mI3hhOyAgICAgICAgPHBhdGggZD0iTSAtMC41NDg4NzMsLTAuODM1OTA2IEEgMC45OTk5OSwwLjU4NDkxNiA1Ni40MDIxIDEgMCAwLjU1NzgzNCwwLjgyOTk1MiBBIDEsMSAwIDAgMSAwLjU0ODg3MywwLjgzNTkwNiBBIDAuOTk5OTksMC41ODQ5MTYgNTYuNDAyMSAwIDEgLTAuNTU3ODM0LC0wLjgyOTk1MiBBIDEsMSAwIDAgMSAtMC41NDg4NzMsLTAuODM1OTA2IFoiIGlkPSJtZXJpZGlhbjEzIi8+JiN4YTsgICAgICAgIDxwYXRoIGQ9Ik0gLTAuNDE4NzAyLC0wLjkwODEyNCBBIDAuOTk5OTksMC40ODI5NTggNjQuOTYxOCAxIDAgMC40Mjc3MzEsMC45MDM5MDYgQSAxLDEgMCAwIDEgMC40MTg3MDIsMC45MDgxMjQgQSAwLjk5OTk5LDAuNDgyOTU4IDY0Ljk2MTggMCAxIC0wLjQyNzczMSwtMC45MDM5MDYgQSAxLDEgMCAwIDEgLTAuNDE4NzAyLC0wLjkwODEyNCBaIiBpZD0ibWVyaWRpYW4xNCIvPiYjeGE7ICAgICAgICA8cGF0aCBkPSJNIC0wLjI5NzYyMSwtMC45NTQ2ODQgQSAwLjk5OTk5LDAuMzY2MzI2IDcyLjQxNjUgMSAwIDAuMzA2NTYyLDAuOTUxODUxIEEgMSwxIDAgMCAxIDAuMjk3NjIxLDAuOTU0Njg0IEEgMC45OTk5OSwwLjM2NjMyNiA3Mi40MTY1IDAgMSAtMC4zMDY1NjIsLTAuOTUxODUxIEEgMSwxIDAgMCAxIC0wLjI5NzYyMSwtMC45NTQ2ODQgWiIgaWQ9Im1lcmlkaWFuMTUiLz4mI3hhOyAgICAgICAgPHBhdGggZD0iTSAtMC4xODQwODYsLTAuOTgyOTEgQSAwLjk5OTk5LDAuMjM4NTY0IDc5LjEzNDcgMSAwIDAuMTkyOTExLDAuOTgxMjE2IEEgMSwxIDAgMCAxIDAuMTg0MDg2LDAuOTgyOTEgQSAwLjk5OTk5LDAuMjM4NTY0IDc5LjEzNDcgMCAxIC0wLjE5MjkxMSwtMC45ODEyMTYgQSAxLDEgMCAwIDEgLTAuMTg0MDg2LC0wLjk4MjkxIFoiIGlkPSJtZXJpZGlhbjE2Ii8+JiN4YTsgICAgICAgIDxwYXRoIGQ9Ik0gLTAuMDc1NTE1MiwtMC45OTcxNDUgQSAwLjk5OTk5LDAuMTAzNTUyIDg1LjQxNzggMSAwIDAuMDg0MjYwOSwwLjk5NjQ0NCBBIDEsMSAwIDAgMSAwLjA3NTUxNTIsMC45OTcxNDUgQSAwLjk5OTk5LDAuMTAzNTUyIDg1LjQxNzggMCAxIC0wLjA4NDI2MDksLTAuOTk2NDQ0IEEgMSwxIDAgMCAxIC0wLjA3NTUxNTIsLTAuOTk3MTQ1IFoiIGlkPSJtZXJpZGlhbjE3Ii8+JiN4YTsgICAgICA8L2c+JiN4YTsgICAgICA8ZyBpZD0iY2lyY2xlc19vZl9sYXRpdHVkZSI+JiN4YTsgICAgICAgIDxwYXRoIGQ9Ik0gLTAuMjcyOTMxLC0wLjk2MjAzMyBBIDAuNjQ2MTI0LDAuMzkzMzM1IDAgMCAxIDAuMjcyOTMxLC0wLjk2MjAzMyBBIDEsMSAwIDAgMCAwLjI0NjY1MywtMC45NjkxMDQgQSAwLjYzOTQzOSwwLjM4OTI2NiAwIDAgMCAtMC4yNDY2NTMsLTAuOTY5MTA0IEEgMSwxIDAgMCAwIC0wLjI3MjkzMSwtMC45NjIwMzMgWiIgaWQ9ImNpcmNsZV9vZl9sYXRpdHVkZTQiLz4mI3hhOyAgICAgICAgPHBhdGggZD0iTSAtMC41OTE5MjIsLTAuODA1OTk1IEEgMC43Njg4NDIsMC40NjgwNDEgMCAwIDEgMC41OTE5MjIsLTAuODA1OTk1IEEgMSwxIDAgMCAwIDAuNTgwMjc0LC0wLjgxNDQyMSBBIDAuNzYzMjMyLDAuNDY0NjI2IDAgMCAwIC0wLjU4MDI3NCwtMC44MTQ0MjEgQSAxLDEgMCAwIDAgLTAuNTkxOTIyLC0wLjgwNTk5NSBaIiBpZD0iY2lyY2xlX29mX2xhdGl0dWRlNSIvPiYjeGE7ICAgICAgICA8cGF0aCBkPSJNIC0wLjc4MDI1LC0wLjYyNTQ2NyBBIDAuODY4MTk5LDAuNTI4NTI2IDAgMCAxIDAuNzgwMjUsLTAuNjI1NDY3IEEgMSwxIDAgMCAwIDAuNzcyNTE4LC0wLjYzNDk5MyBBIDAuODYzODM2LDAuNTI1ODcgMCAwIDAgLTAuNzcyNTE4LC0wLjYzNDk5MyBBIDEsMSAwIDAgMCAtMC43ODAyNSwtMC42MjU0NjcgWiIgaWQ9ImNpcmNsZV9vZl9sYXRpdHVkZTYiLz4mI3hhOyAgICAgICAgPHBhdGggZD0iTSAtMC45MDQ3NTQsLTAuNDI1OTM1IEEgMC45NDExNzYsMC41NzI5NTIgMCAwIDEgMC45MDQ3NTQsLTAuNDI1OTM1IEEgMSwxIDAgMCAwIDAuODk5ODE1LC0wLjQzNjI3MSBBIDAuOTM4MTkxLDAuNTcxMTM1IDAgMCAwIC0wLjg5OTgxNSwtMC40MzYyNzEgQSAxLDEgMCAwIDAgLTAuOTA0NzU0LC0wLjQyNTkzNSBaIiBpZD0iY2lyY2xlX29mX2xhdGl0dWRlNyIvPiYjeGE7ICAgICAgICA8cGF0aCBkPSJNIC0wLjk3Njk1MiwtMC4yMTM0NiBBIDAuOTg1NTU2LDAuNTk5OTY5IDAgMCAxIDAuOTc2OTUyLC0wLjIxMzQ2IEEgMSwxIDAgMCAwIDAuOTc0NTIyLC0wLjIyNDI5MyBBIDAuOTg0MDQxLDAuNTk5MDQ2IDAgMCAwIC0wLjk3NDUyMiwtMC4yMjQyOTMgQSAxLDEgMCAwIDAgLTAuOTc2OTUyLC0wLjIxMzQ2IFoiIGlkPSJjaXJjbGVfb2ZfbGF0aXR1ZGU4Ii8+JiN4YTsgICAgICAgIDxwYXRoIGQ9Ik0gLTAuOTk5OTg1LDAuMDA1NDk5ODMgQSAwLjk5OTk5LDAuNjA4NzU2IDAgMSAxIDAuOTk5OTg1LDAuMDA1NDk5ODMgQSAxLDEgMCAwIDAgMC45OTk5ODUsLTAuMDA1NDk5ODMgQSAwLjk5OTk5LDAuNjA4NzU2IDAgMCAwIC0wLjk5OTk4NSwtMC4wMDU0OTk4MyBBIDEsMSAwIDAgMCAtMC45OTk5ODUsMC4wMDU0OTk4MyBaIiBpZD0iY2lyY2xlX29mX2xhdGl0dWRlOSIvPiYjeGE7ICAgICAgICA8cGF0aCBkPSJNIC0wLjk3NDUyMiwwLjIyNDI5MyBBIDAuOTg0MDQxLDAuNTk5MDQ2IDAgMSAxIDAuOTc0NTIyLDAuMjI0MjkzIEEgMSwxIDAgMCAwIDAuOTc2OTUyLDAuMjEzNDYgQSAwLjk4NTU1NiwwLjU5OTk2OSAwIDEgMCAtMC45NzY5NTIsMC4yMTM0NiBBIDEsMSAwIDAgMCAtMC45NzQ1MjIsMC4yMjQyOTMgWiIgaWQ9ImNpcmNsZV9vZl9sYXRpdHVkZTEwIi8+JiN4YTsgICAgICAgIDxwYXRoIGQ9Ik0gLTAuODk5ODE1LDAuNDM2MjcxIEEgMC45MzgxOTEsMC41NzExMzUgMCAxIDEgMC44OTk4MTUsMC40MzYyNzEgQSAxLDEgMCAwIDAgMC45MDQ3NTQsMC40MjU5MzUgQSAwLjk0MTE3NiwwLjU3Mjk1MiAwIDEgMCAtMC45MDQ3NTQsMC40MjU5MzUgQSAxLDEgMCAwIDAgLTAuODk5ODE1LDAuNDM2MjcxIFoiIGlkPSJjaXJjbGVfb2ZfbGF0aXR1ZGUxMSIvPiYjeGE7ICAgICAgICA8cGF0aCBkPSJNIC0wLjc3MjUxOCwwLjYzNDk5MyBBIDAuODYzODM2LDAuNTI1ODcgMCAxIDEgMC43NzI1MTgsMC42MzQ5OTMgQSAxLDEgMCAwIDAgMC43ODAyNSwwLjYyNTQ2NyBBIDAuODY4MTk5LDAuNTI4NTI2IDAgMSAwIC0wLjc4MDI1LDAuNjI1NDY3IEEgMSwxIDAgMCAwIC0wLjc3MjUxOCwwLjYzNDk5MyBaIiBpZD0iY2lyY2xlX29mX2xhdGl0dWRlMTIiLz4mI3hhOyAgICAgICAgPHBhdGggZD0iTSAtMC41ODAyNzQsMC44MTQ0MjEgQSAwLjc2MzIzMiwwLjQ2NDYyNiAwIDEgMSAwLjU4MDI3NCwwLjgxNDQyMSBBIDEsMSAwIDAgMCAwLjU5MTkyMiwwLjgwNTk5NSBBIDAuNzY4ODQyLDAuNDY4MDQxIDAgMSAwIC0wLjU5MTkyMiwwLjgwNTk5NSBBIDEsMSAwIDAgMCAtMC41ODAyNzQsMC44MTQ0MjEgWiIgaWQ9ImNpcmNsZV9vZl9sYXRpdHVkZTEzIi8+JiN4YTsgICAgICAgIDxwYXRoIGQ9Ik0gLTAuMjQ2NjUzLDAuOTY5MTA0IEEgMC42Mzk0MzksMC4zODkyNjYgMCAxIDEgMC4yNDY2NTMsMC45NjkxMDQgQSAxLDEgMCAwIDAgMC4yNzI5MzEsMC45NjIwMzMgQSAwLjY0NjEyNCwwLjM5MzMzNSAwIDEgMCAtMC4yNzI5MzEsMC45NjIwMzMgQSAxLDEgMCAwIDAgLTAuMjQ2NjUzLDAuOTY5MTA0IFoiIGlkPSJjaXJjbGVfb2ZfbGF0aXR1ZGUxNCIvPiYjeGE7ICAgICAgICA8cGF0aCBkPSJNIC0wLjQ5NjIxNywwLjY4ODc4OCBBIDAuNDk2MjE3LDAuMzAyMDc3IDAgMSAwIDAuNDk2MjE3LDAuNjg4Nzg4IEEgMC40OTYyMTcsMC4zMDIwNzcgMCAxIDAgLTAuNDk2MjE3LDAuNjg4Nzg4IFogTSAtMC41MDM3NzQsMC42ODUzMjcgQSAwLjUwMzc3NCwwLjMwNjY3OCAwIDEgMSAwLjUwMzc3NCwwLjY4NTMyNyBBIDAuNTAzNzc0LDAuMzA2Njc4IDAgMSAxIC0wLjUwMzc3NCwwLjY4NTMyNyBaIiBpZD0iY2lyY2xlX29mX2xhdGl0dWRlMTUiLz4mI3hhOyAgICAgICAgPHBhdGggZD0iTSAtMC4zMzc5MTcsMC43NDY2ODUgQSAwLjMzNzkxNywwLjIwNTcxMSAwIDEgMCAwLjMzNzkxNywwLjc0NjY4NSBBIDAuMzM3OTE3LDAuMjA1NzExIDAgMSAwIC0wLjMzNzkxNywwLjc0NjY4NSBaIE0gLTAuMzQ2MTE3LDAuNzQ0MzE3IEEgMC4zNDYxMTcsMC4yMTA3MDMgMCAxIDEgMC4zNDYxMTcsMC43NDQzMTcgQSAwLjM0NjExNywwLjIxMDcwMyAwIDEgMSAtMC4zNDYxMTcsMC43NDQzMTcgWiIgaWQ9ImNpcmNsZV9vZl9sYXRpdHVkZTE2Ii8+JiN4YTsgICAgICAgIDxwYXRoIGQ9Ik0gLTAuMTY5MzUsMC43ODE4OTQgQSAwLjE2OTM1LDAuMTAzMDkzIDAgMSAwIDAuMTY5MzUsMC43ODE4OTQgQSAwLjE2OTM1LDAuMTAzMDkzIDAgMSAwIC0wLjE2OTM1LDAuNzgxODk0IFogTSAtMC4xNzc5NDQsMC43ODA2OTIgQSAwLjE3Nzk0NCwwLjEwODMyNSAwIDEgMSAwLjE3Nzk0NCwwLjc4MDY5MiBBIDAuMTc3OTQ0LDAuMTA4MzI1IDAgMSAxIC0wLjE3Nzk0NCwwLjc4MDY5MiBaIiBpZD0iY2lyY2xlX29mX2xhdGl0dWRlMTciLz4mI3hhOyAgICAgIDwvZz4mI3hhOyAgICA8L2c+JiN4YTsgIDwvZz4mI3hhOzwvc3ZnPg==;" vertex="1" parent="1">
          <mxGeometry x="320" y="160" width="400" height="400" as="geometry" />
        </mxCell>
        <mxCell id="DkBrtQAzlAgfag9NeIXc-11" value="" style="shape=cross;whiteSpace=wrap;html=1;fillColor=none;strokeColor=#004489;size=0;rotation=45;strokeWidth=4;" vertex="1" parent="1">
          <mxGeometry x="525" y="430" width="30" height="30" as="geometry" />
        </mxCell>
        <mxCell id="DkBrtQAzlAgfag9NeIXc-12" value="" style="shape=cross;whiteSpace=wrap;html=1;fillColor=none;strokeColor=#004489;size=0;rotation=45;strokeWidth=4;" vertex="1" parent="1">
          <mxGeometry x="530" y="330" width="30" height="30" as="geometry" />
        </mxCell>
        <mxCell id="DkBrtQAzlAgfag9NeIXc-13" value="" style="shape=cross;whiteSpace=wrap;html=1;fillColor=none;strokeColor=#004489;size=0;rotation=45;strokeWidth=4;" vertex="1" parent="1">
          <mxGeometry x="580" y="380" width="30" height="30" as="geometry" />
        </mxCell>
        <mxCell id="DkBrtQAzlAgfag9NeIXc-16" style="rounded=0;orthogonalLoop=1;jettySize=auto;html=1;exitX=0;exitY=0;exitDx=15;exitDy=15;exitPerimeter=0;entryX=0;entryY=0;entryDx=15;entryDy=15;entryPerimeter=0;strokeColor=#000000;strokeWidth=2;" edge="1" parent="1" source="DkBrtQAzlAgfag9NeIXc-15" target="DkBrtQAzlAgfag9NeIXc-12">
          <mxGeometry relative="1" as="geometry" />
        </mxCell>
        <mxCell id="DkBrtQAzlAgfag9NeIXc-17" style="rounded=0;orthogonalLoop=1;jettySize=auto;html=1;exitX=0;exitY=0;exitDx=15;exitDy=15;exitPerimeter=0;entryX=0;entryY=0;entryDx=15;entryDy=15;entryPerimeter=0;strokeColor=#000000;strokeWidth=2;" edge="1" parent="1" source="DkBrtQAzlAgfag9NeIXc-15" target="DkBrtQAzlAgfag9NeIXc-13">
          <mxGeometry relative="1" as="geometry" />
        </mxCell>
        <mxCell id="DkBrtQAzlAgfag9NeIXc-19" style="rounded=0;orthogonalLoop=1;jettySize=auto;html=1;exitX=0;exitY=0;exitDx=15;exitDy=15;exitPerimeter=0;entryX=0;entryY=0;entryDx=15;entryDy=15;entryPerimeter=0;strokeColor=#000000;strokeWidth=2;" edge="1" parent="1" source="DkBrtQAzlAgfag9NeIXc-15" target="DkBrtQAzlAgfag9NeIXc-11">
          <mxGeometry relative="1" as="geometry" />
        </mxCell>
        <mxCell id="DkBrtQAzlAgfag9NeIXc-15" value="" style="shape=cross;whiteSpace=wrap;html=1;size=0;rotation=45;strokeWidth=4;fillColor=none;strokeColor=#000000;" vertex="1" parent="1">
          <mxGeometry x="540" y="380" width="30" height="30" as="geometry" />
        </mxCell>
      </root>
    </mxGraphModel>
  </diagram>
</mxfile>
